<svg version="1.0" xmlns="http://www.w3.org/2000/svg" width="300.000000pt" height="180.000000pt" viewBox="0 0 300.000000 180.000000" preserveAspectRatio="xMidYMid meet">  <g transform="translate(0.000000,180.000000) scale(0.100000,-0.100000)" fill="#ffffff" stroke="none">  <path d="M1160 1138 c0 -2 -1 -153 -3 -336 l-2 -332 52 0 53 0 2 265 3 266 56 -68 c31 -37 83 -100 117 -140 l60 -72 159 192 c210 254 195 227 129 227 l-54 0 -112 -132 c-61 -73 -115 -133 -119 -133 -5 0 -59 60 -121 133 l-112 132 -54 0 c-30 0 -54 -1 -54 -2z m124 -80 c23 -24 61 -68 86 -98 65 -80 109 -120 130 -120 11 0 36 15 57 33 l37 32 -44 -57 c-25 -32 -48 -58 -52 -58 -3 0 -42 42 -85 93 -99 117 -122 139 -147 135 -40 -6 -46 -41 -46 -270 0 -134 -4 -219 -10 -223 -11 -7 -15 557 -3 568 15 15 38 5 77 -35z" data-index="1" style="visibility: hidden;"></path>  </g> </svg>