 <svg  version="1.0" xmlns="http://www.w3.org/2000/svg"  width="300.000000pt" height="180.000000pt" viewBox="0 0 300.000000 180.000000"  preserveAspectRatio="xMidYMid meet">  <g transform="translate(0.000000,180.000000) scale(0.100000,-0.100000)" fill="#111212" stroke="none"> <path d="M1405 1324 c-391 -41 -680 -178 -774 -366 -83 -166 -2 -333 229 -470 32 -19 31 -17 -12 23 -102 95 -141 202 -114 309 9 33 26 77 39 97 65 102 227 210 402 266 377 122 885 81 1163 -94 75 -46 84 -49 40 -11 -128 110 -312 187 -543 227 -89 16 -352 27 -430 19z m235 -35 c0 -5 -33 -10 -72 -10 -112 -2 -251 -24 -370 -60 -38 -11 -70 -20 -73 -20 -2 0 -36 -16 -75 -35 -39 -19 -73 -34 -76 -34 -3 0 -31 -18 -62 -39 -58 -40 -121 -102 -159 -157 -51 -73 -68 -198 -38 -271 8 -20 13 -38 11 -40 -8 -9 -75 95 -90 141 -18 51 -14 118 6 144 6 6 8 12 4 12 -9 0 21 57 47 87 43 50 99 98 145 123 26 14 49 28 52 31 7 9 124 54 200 78 58 18 215 46 295 53 84 8 255 6 255 -3z m89 -5 c2 -2 -12 -4 -32 -4 -20 0 -38 4 -42 9 -5 9 64 4 74 -5z"/> <path d="M1160 1138 c0 -2 -1 -153 -3 -336 l-2 -332 52 0 53 0 2 264 3 264 117 -138 116 -139 159 191 c210 255 195 228 130 228 l-55 0 -112 -132 c-62 -73 -116 -133 -120 -133 -4 0 -58 60 -120 133 l-112 132 -54 0 c-30 0 -54 -1 -54 -2z m158 -97 c34 -38 62 -72 62 -76 0 -14 109 -125 123 -125 10 0 43 34 82 85 52 68 157 185 166 185 28 0 5 -36 -112 -177 -73 -87 -135 -159 -139 -161 -4 -1 -44 41 -89 95 -141 167 -139 166 -166 139 -11 -11 -15 -58 -15 -217 -1 -112 -1 -223 0 -247 1 -40 -1 -43 -22 -40 l-23 3 -3 290 c-1 160 0 296 3 303 2 6 19 12 38 12 28 0 42 -10 95 -69z"/> <path d="M1820 1037 c-8 -13 -84 -107 -168 -210 l-154 -185 -76 90 c-43 50 -87 102 -99 117 l-22 26 -1 -74 0 -74 73 -84 c39 -46 84 -98 98 -115 l26 -31 119 146 119 145 3 -159 2 -159 50 0 50 0 0 295 c0 162 -1 295 -3 295 -1 0 -9 -10 -17 -23z m-9 -303 c0 -223 0 -229 -20 -232 -23 -4 -24 -1 -26 180 -1 98 -12 132 -41 121 -13 -5 -109 -115 -182 -211 -19 -24 -40 -42 -47 -40 -7 2 -47 43 -89 92 -57 67 -76 96 -76 118 0 16 4 27 9 24 5 -3 39 -42 77 -86 37 -44 75 -80 84 -80 9 0 28 14 41 32 32 42 71 89 89 108 8 8 50 59 94 113 43 54 80 96 83 94 2 -3 4 -107 4 -233z"/> </g> </svg> 