<?xml version="1.0" standalone="no"?>
<!DOCTYPE svg PUBLIC "-//W3C//DTD SVG 20010904//EN"
 "http://www.w3.org/TR/2001/REC-SVG-20010904/DTD/svg10.dtd">
<svg version="1.0" xmlns="http://www.w3.org/2000/svg"
 width="300.000000pt" height="180.000000pt" viewBox="0 0 300.000000 180.000000"
 preserveAspectRatio="xMidYMid meet">
<metadata>
Created by potrace 1.10, written by Peter Selinger 2001-2011
</metadata>
<g transform="translate(0.000000,180.000000) scale(0.100000,-0.100000)"
fill="#111212" stroke="none">
<path d="M0 900 l0 -900 1500 0 1500 0 0 900 0 900 -1500 0 -1500 0 0 -900z
m1835 405 c231 -40 415 -117 543 -227 44 -38 35 -35 -40 11 -278 175 -786 216
-1163 94 -175 -56 -337 -164 -402 -266 -83 -132 -55 -285 75 -406 43 -40 44
-42 12 -23 -231 137 -312 304 -229 470 94 188 383 325 774 366 78 8 341 -3
430 -19z m-455 -297 c62 -73 116 -133 120 -133 4 0 58 60 120 133 l112 132 55
0 c65 0 80 27 -130 -228 l-159 -191 -116 139 -117 138 -3 -264 -2 -264 -53 0
-52 0 2 332 c2 183 3 334 3 336 0 1 24 2 54 2 l54 0 112 -132z m460 -243 l0
-295 -50 0 -50 0 -2 159 -3 159 -119 -145 -119 -146 -26 31 c-14 17 -59 69
-98 115 l-73 84 0 74 1 74 22 -26 c12 -15 56 -67 99 -117 l76 -90 154 185 c84
103 160 197 168 210 8 13 16 23 17 23 2 0 3 -133 3 -295z"/>
<path d="M1385 1292 c-80 -7 -237 -35 -295 -53 -76 -24 -193 -69 -200 -78 -3
-3 -26 -17 -52 -31 -46 -25 -102 -73 -145 -123 -26 -30 -56 -87 -47 -87 4 0 2
-6 -4 -12 -20 -26 -24 -93 -6 -144 15 -46 82 -150 90 -141 2 2 -3 20 -11 40
-30 73 -13 198 38 271 38 55 101 117 159 157 31 21 59 39 62 39 3 0 37 15 76
34 39 19 73 35 75 35 3 0 35 9 73 20 119 36 258 58 370 60 39 0 72 5 72 10 0
9 -171 11 -255 3z"/>
<path d="M1655 1289 c4 -5 22 -9 42 -9 45 0 40 5 -10 13 -22 3 -35 2 -32 -4z"/>
<path d="M1185 1098 c-3 -7 -4 -143 -3 -303 l3 -290 23 -3 c21 -3 23 0 22 40
-1 24 -1 135 0 247 0 159 4 206 15 217 27 27 25 28 166 -139 45 -54 85 -96 89
-95 4 2 66 74 139 161 117 141 140 177 112 177 -9 0 -114 -117 -166 -185 -39
-51 -72 -85 -82 -85 -14 0 -123 111 -123 125 0 4 -28 38 -62 76 -53 59 -67 69
-95 69 -19 0 -36 -6 -38 -12z"/>
<path d="M1724 873 c-44 -54 -86 -105 -94 -113 -18 -19 -57 -66 -89 -108 -13
-18 -32 -32 -41 -32 -9 0 -47 36 -84 80 -38 44 -72 83 -77 86 -5 3 -9 -8 -9
-24 0 -22 19 -51 76 -118 42 -49 82 -90 89 -92 7 -2 28 16 47 40 73 96 169
206 182 211 29 11 40 -23 41 -121 2 -181 3 -184 26 -180 20 3 20 9 20 232 0
126 -2 230 -4 233 -3 2 -40 -40 -83 -94z"/>
</g>
</svg>
