 <svg  version="1.0" xmlns="http://www.w3.org/2000/svg"  width="300.000000pt" height="180.000000pt" viewBox="0 0 300.000000 180.000000"  preserveAspectRatio="xMidYMid meet">  <g transform="translate(0.000000,180.000000) scale(0.100000,-0.100000)" fill="#ffffff" stroke="none"> <path d="M1405 1324 c-208 -22 -368 -64 -511 -135 -279 -137 -369 -348 -230 -538 36 -48 119 -118 191 -161 39 -23 39 -22 -17 34 -32 32 -70 83 -85 114 -116 237 132 493 565 583 356 75 767 21 1019 -132 36 -22 67 -38 69 -36 2 2 -24 25 -59 51 -121 93 -304 165 -512 201 -89 16 -352 27 -430 19z m-240 -103 c-172 -59 -280 -122 -368 -215 -67 -72 -98 -139 -106 -234 l-7 -77 -22 43 c-98 186 104 404 461 497 144 37 168 30 42 -14z"/> <path d="M1160 1138 c0 -2 -1 -153 -3 -336 l-2 -332 52 0 53 0 2 265 3 266 56 -68 c31 -37 83 -100 117 -140 l60 -72 159 192 c210 254 195 227 129 227 l-54 0 -112 -132 c-61 -73 -115 -133 -119 -133 -5 0 -59 60 -121 133 l-112 132 -54 0 c-30 0 -54 -1 -54 -2z m124 -80 c23 -24 61 -68 86 -98 65 -80 109 -120 130 -120 11 0 36 15 57 33 l37 32 -44 -57 c-25 -32 -48 -58 -52 -58 -3 0 -42 42 -85 93 -99 117 -122 139 -147 135 -40 -6 -46 -41 -46 -270 0 -134 -4 -219 -10 -223 -11 -7 -15 557 -3 568 15 15 38 5 77 -35z"/> <path d="M1823 1041 c-7 -11 -83 -105 -169 -210 l-156 -190 -76 91 c-42 50 -87 102 -99 117 l-22 26 -1 -74 0 -73 87 -102 c47 -55 92 -107 98 -114 10 -11 35 14 131 131 l119 145 3 -159 2 -159 50 0 50 0 0 295 c0 162 -1 295 -3 295 -1 0 -8 -9 -14 -19z m-23 -318 c0 -127 -4 -203 -9 -198 -5 6 -11 63 -13 127 -3 105 -5 120 -25 139 -21 21 -23 21 -47 5 -24 -15 -46 -38 -106 -106 l-22 -25 19 26 c59 85 185 239 195 239 4 0 8 -93 8 -207z m-404 -20 c64 -84 109 -102 152 -63 32 30 27 15 -10 -31 -34 -42 -43 -46 -61 -26 -25 26 -114 133 -121 145 -17 28 14 9 40 -25z"/> </g> </svg> 